<svg data-v-423bf9ae="" xmlns="http://www.w3.org/2000/svg" viewBox="0 0 574.1142926897321 60" class="font"><!----><!----><!----><g data-v-423bf9ae="" id="d7cd44c9-e968-42c4-b7b4-cfd7f035b8e0" fill="white" transform="matrix(5.714285714285714,0,0,5.714285714285714,-6.057142325810048,-1.1999991238117218)"><path d="M5.08 10.50C7.36 10.50 8.88 9.72 8.88 7.59C8.88 6.40 8.08 5.53 6.87 5.24C7.98 4.87 8.44 3.99 8.44 3.04C8.44 1.25 6.96 0.42 4.91 0.42L1.06 0.42L1.06 10.50ZM2.69 1.81L4.56 1.81C5.78 1.81 6.78 2.03 6.78 3.21C6.78 4.30 5.85 4.66 4.73 4.66L2.69 4.66ZM2.69 6.05L4.86 6.05C6.10 6.05 7.17 6.38 7.17 7.59C7.17 8.76 6.31 9.11 5.04 9.11L2.69 9.11ZM11.94 10.50L11.94 0.21L10.39 0.77L10.39 10.50ZM13.24 6.86C13.24 9.37 14.73 10.71 16.73 10.71C18.72 10.71 20.20 9.37 20.20 6.86C20.20 4.35 18.72 3.01 16.73 3.01C14.73 3.01 13.24 4.35 13.24 6.86ZM14.80 6.86C14.80 5.10 15.67 4.31 16.73 4.31C17.78 4.31 18.65 5.10 18.65 6.86C18.65 8.62 17.78 9.42 16.73 9.42C15.67 9.42 14.80 8.62 14.80 6.86ZM22.62 6.86C22.62 5.10 23.44 4.31 24.46 4.31C25.24 4.31 25.86 4.75 26.08 5.81L27.59 5.52C27.20 3.85 26.03 3.01 24.46 3.01C22.48 3.01 21.07 4.35 21.07 6.86C21.07 9.37 22.48 10.71 24.46 10.71C26.03 10.71 27.20 9.88 27.59 8.22L26.08 7.92C25.86 8.97 25.24 9.42 24.46 9.42C23.42 9.42 22.62 8.62 22.62 6.86ZM28.90 10.50L30.45 10.50L30.45 7.48L30.94 7.48C31.50 7.48 31.92 7.71 32.27 8.32L33.38 10.50L35.14 10.50L33.84 8.08C33.40 7.36 32.90 6.89 32.38 6.76L32.38 6.71C32.93 6.57 33.26 6.15 33.56 5.45C33.78 4.93 33.84 4.63 34.44 4.63L34.75 4.63L34.82 3.22L34.51 3.22C33.63 3.22 33.17 3.29 32.76 4.02C32.63 4.24 32.28 5.21 32.03 5.57C31.67 6.10 31.28 6.17 30.86 6.17L30.45 6.17L30.45 0.42L28.90 0.42ZM36.05 7.28C36.20 9.52 37.63 10.71 40.22 10.71C42.04 10.71 43.99 9.74 43.99 7.67C43.99 6.08 42.97 5.29 41.50 4.87C40.53 4.61 39.21 4.23 38.75 4.05C38.22 3.85 37.98 3.49 37.98 3.01C37.98 2.07 38.93 1.62 39.94 1.62C41.29 1.62 41.90 2.31 42.03 3.40L43.67 3.30C43.53 1.20 42.17 0.21 39.89 0.21C38.14 0.21 36.39 1.16 36.39 3.14C36.39 4.09 36.68 5.05 38.47 5.61C39.07 5.81 40.63 6.19 41.16 6.38C41.96 6.68 42.25 7.11 42.25 7.74C42.25 8.72 41.43 9.30 40.17 9.30C38.72 9.30 37.77 8.64 37.66 7.17L36.05 7.28ZM47.00 2.00L47.00 0.42L45.44 0.42L45.44 2.00ZM47.00 10.50L47.00 3.22L45.44 3.22L45.44 10.50ZM50.27 10.50L50.27 6.73C50.27 5.46 50.62 4.33 51.87 4.33C52.61 4.33 53.02 4.84 53.02 5.88L53.02 10.50L54.57 10.50L54.57 6.34C54.57 5.19 55.08 4.33 56.15 4.33C57.08 4.33 57.29 5.08 57.29 5.98L57.29 10.50L58.84 10.50L58.84 5.52C58.84 3.89 58.02 3.01 56.56 3.01C55.65 3.01 54.84 3.39 54.38 4.35C54.08 3.50 53.37 3.01 52.30 3.01C51.34 3.01 50.65 3.36 50.15 4.26L50.15 3.22L48.72 3.22L48.72 10.50ZM65.21 3.22L65.21 7.18C65.21 8.64 64.50 9.41 63.49 9.41C62.50 9.41 62.12 8.75 62.12 7.63L62.12 3.22L60.56 3.22L60.56 7.69C60.56 9.42 61.11 10.71 63.13 10.71C64.08 10.71 64.81 10.28 65.34 9.45L65.34 10.50L66.77 10.50L66.77 3.22ZM70.03 10.50L70.03 0.21L68.47 0.77L68.47 10.50ZM76.15 9.66C76.17 9.97 76.23 10.30 76.44 10.50L78.01 10.50C77.76 10.23 77.62 9.76 77.62 9.02L77.62 5.92C77.62 3.95 76.59 3.01 74.68 3.01C73.29 3.01 71.95 3.53 71.58 5.21L72.98 5.59C73.19 4.79 73.68 4.27 74.56 4.27C75.50 4.27 76.06 4.75 76.06 5.64L76.06 5.88C75.70 6.05 74.98 6.17 74.21 6.24C72.55 6.43 71.36 7.04 71.36 8.61C71.36 10.04 72.49 10.71 73.82 10.71C74.69 10.71 75.46 10.43 76.15 9.66ZM76.06 8.41C75.73 8.90 74.96 9.51 74.12 9.51C73.47 9.51 72.95 9.24 72.95 8.53C72.94 7.67 73.68 7.48 74.41 7.35C75.11 7.24 75.75 7.08 76.06 6.96ZM82.67 9.20C82.45 9.27 82.24 9.28 82.10 9.28C81.44 9.28 81.44 8.83 81.44 8.20L81.44 4.44L82.73 4.44L82.73 3.22L81.44 3.22L81.44 0.85L79.88 1.46L79.88 3.22L78.85 3.22L78.85 4.44L79.88 4.44L79.88 8.37C79.88 9.80 80.21 10.64 81.73 10.64C82.00 10.64 82.53 10.57 82.81 10.47ZM85.78 2.00L85.78 0.42L84.22 0.42L84.22 2.00ZM85.78 10.50L85.78 3.22L84.22 3.22L84.22 10.50ZM87.08 6.86C87.08 9.37 88.56 10.71 90.57 10.71C92.55 10.71 94.04 9.37 94.04 6.86C94.04 4.35 92.55 3.01 90.57 3.01C88.56 3.01 87.08 4.35 87.08 6.86ZM88.63 6.86C88.63 5.10 89.50 4.31 90.57 4.31C91.62 4.31 92.48 5.10 92.48 6.86C92.48 8.62 91.62 9.42 90.57 9.42C89.50 9.42 88.63 8.62 88.63 6.86ZM96.88 10.50L96.88 6.54C96.88 5.10 97.61 4.33 98.60 4.33C99.60 4.33 99.97 4.98 99.97 6.09L99.97 10.50L101.53 10.50L101.53 6.03C101.53 4.30 100.98 3.01 98.97 3.01C98.01 3.01 97.29 3.37 96.75 4.27L96.75 3.22L95.33 3.22L95.33 10.50Z"></path></g><!----><!----></svg>